<?xml version="1.0" encoding="UTF-8" standalone="no"?>
<!-- Created with Inkscape (http://www.inkscape.org/) -->

<svg
   version="1.1"
   id="svg1"
   width="1024"
   height="1024"
   viewBox="0 0 1024 1024"
   xmlns="http://www.w3.org/2000/svg"
   xmlns:svg="http://www.w3.org/2000/svg">
  <defs
     id="defs1" />
  <g
     id="g1">
    <path
       id="path1"
       style="fill:#131212;stroke:none"
       d="m 343.05859,105.80859 c -1.38403,0.0177 -2.7878,0.15106 -4.20898,0.40821 -18.64279,3.37309 -16.04099,26.55098 -16.04102,40.51758 -9e-5,32.06694 11.24187,89.70672 -1.83789,118.89843 -22.51532,50.25059 -71.46965,76.12247 -85.95117,136.10157 -47.99201,198.77222 158.00638,328.837 246.78906,479 h -0.50781 c 0.66279,0.81919 1.19297,1.73697 1.6875,2.68554 0.37818,0.82796 0.81738,1.621 1.2168,2.4375 0.30784,0.76209 0.68731,1.48728 1.01172,2.24414 0.0258,0.0449 0.0505,0.10098 0.0762,0.15039 0.47129,0.41666 0.61771,0.74196 0.82812,1.08594 0.68216,0.0374 1.31622,0.13967 1.90235,0.29492 1.8905,-0.29496 3.7239,-0.6673 5.33594,-1.33789 13.94393,-5.80046 25.51155,-31.6257 34.13281,-43.56054 25.58503,-35.41901 53.02184,-69.43916 80.98242,-103 86.36024,-103.65766 189.54605,-222.74252 134.05469,-367 -3.04881,-7.92577 -7.3615,-15.48692 -12.43555,-22.78907 14.69247,27.86258 24.24307,58.554 24.71484,89.78907 h -1 c -4.09952,-41.2217 -20.09258,-81.66918 -44.5332,-115.21876 -7.09733,-7.84834 -14.35275,-15.56292 -21.10742,-23.23632 -11.12146,-10.15509 -23.03049,-20.47132 -28.45508,-31.92969 -9.72986,-20.55257 -1.9043,-60.94609 -1.9043,-83.61523 0,-23.34829 9.28218,-73.65364 -23,-77 30.22398,-13.621153 24.90709,39.36849 24.98829,55 0.14396,27.78834 -9.60161,75.48698 1.84765,100.88671 1.52565,3.3846 3.82052,6.60815 6.4375,9.75586 -2.54315,-4.49142 -4.63404,-9.0411 -6.10742,-13.68164 -12.24336,-38.56108 20.61955,-119.47419 -7.11133,-150.46679 -19.14082,-21.392336 -41.15394,15.81685 -51.5332,28.50586 -48.03631,58.72645 -70.93548,88.10527 -150.49805,79.80664 -6.98356,-0.72843 -13.49077,-4.72855 -19.74023,-10.52149 4.59997,5.29341 8.97219,9.51503 12.98828,11.83008 19.17935,11.05583 68.24187,-3.10156 92.72851,2.88477 -15.04769,4.74907 -86.44927,6.60874 -98.43164,-2.35938 -37.80138,-28.29243 -57.86607,-96.30179 -103.56836,-112.64062 20.58725,-6.04353 44.27601,26.81934 66.16211,58.82812 -18.38249,-30.54234 -36.60594,-63.05201 -59.91211,-62.75391 z m 59.91211,62.75391 c 9.72649,16.16039 19.52135,31.63181 30.1211,41.45703 -9.20074,-10.58745 -19.4555,-25.85858 -30.1211,-41.45703 z m 265.11133,107.81445 c 5.16825,9.12771 12.25992,18.01188 20.08594,26.90235 6.00495,5.48315 11.83089,10.9371 16.16797,16.46093 1.72297,2.19446 3.2932,4.51572 4.93945,6.77539 7.45045,8.23897 14.70365,16.63007 20.81836,25.42969 -7.91441,-15.00884 -17.2573,-29.23499 -27.62109,-42.19922 -8.87975,-11.10775 -24.56941,-21.55561 -34.39063,-33.36914 z m -49.27344,-53.64257 c 8.4058,19.3298 7.1814,34.31888 7,55 -32.01744,-15.48808 -27.20632,-30.5628 -7,-55 z m -250,3 c 18.63096,23.77674 20.56043,38.74922 -10,52 v -47 h 1 z m 225,34 c 11.47016,4.2335 21.82314,13.04327 30,22 -11.35432,-5.11609 -21.4239,-13.02297 -30,-22 z M 402.86133,346.125 c 18.00932,2.54102 9.1958,45.58989 7.44531,56.60938 -6.26377,39.432 -42.34079,127.92748 -93.46289,125.8164 -10.05211,-0.4151 -15.11359,-11.29188 -9.51367,-19.40234 27.4885,-39.81248 63.93578,-52.30058 75.41797,-105.41406 2.76781,-12.80363 -0.31144,-55.14772 16.14257,-57.55665 1.44911,-0.21215 2.77007,-0.22252 3.97071,-0.0527 z m 117.94726,51.14258 c 11.86961,-0.93188 28.14866,10.83704 14.3711,21.76562 -9.10032,7.21856 -61.51073,27.85351 -72.3086,27.61914 -17.53191,-0.3805 -10.14775,-20.71137 -1.89453,-27.48046 16.65419,-13.65941 38.62515,-20.23932 59.83203,-21.9043 z m -71,45.4668 14,7 v 1 c -6.09089,-1.0246 -10.37866,-2.86592 -14,-8 z m 139.75,15.35742 c 14.71447,0.2723 29.8792,3.51209 25.82227,17.36914 -4.2977,14.67935 -62.83449,12.43274 -77.57227,17.40039 -70.43643,23.74165 -96.86557,109.66416 -179.99804,94.16015 -8.70774,-1.62388 -23.36757,-12.51905 -13.86133,-22.01757 12.88987,-12.87944 47.54477,0.84543 64.85937,-9.29102 59.03831,-34.56243 82.3005,-90.75417 159,-96.55859 4.25551,-0.32206 12.92138,-1.22589 21.75,-1.0625 z m 16.25,27.64258 v 1 l -34,2 z m -37,2 -4,1 h 4 z m -9,1 -1,1 z m 109,17.40429 c 10.30516,-0.69147 39.23917,6.04704 23.09961,21.46289 -4.36324,4.16779 -12.19571,6.21472 -20.96484,7.48438 l 14.86523,-1.35156 v 1 l -18.88671,0.85937 c -12.39313,1.45399 -25.87583,1.78978 -34.11329,4.27148 -38.81364,11.69414 -73.45035,36.69281 -95.55664,70.86915 -17.12295,26.47205 -26.79577,56.60064 -29.08789,88 -0.6546,8.96702 0.50955,25.09106 -12.3789,25.67968 -32.3571,1.47779 0.47882,-96.09207 6.93164,-109.67968 30.89692,-65.06068 95.53387,-103.86152 166.09179,-108.59571 z m -1.88671,29.45508 c 1.35219,-0.15866 2.70456,-0.31714 4.02148,-0.50781 l -7.13477,0.64844 z m -365.11329,-12.85937 11,8 v 1 c -4.99275,-1.9801 -8.54565,-4.10665 -11,-9 z m 37,55 c 14.11809,12.2828 28.19501,11.99994 46,12 v 1 c -15.55798,0 -36.96468,2.83859 -46,-13 z m 56,12 v 1 h -5 z m 93,136 3,1 v 1 l -4,-1 z" />
  </g>
</svg>
