<?xml version="1.0" encoding="UTF-8" standalone="no"?>
<!-- Created with Inkscape (http://www.inkscape.org/) -->

<svg
   version="1.1"
   id="svg1"
   width="1024"
   height="1024"
   viewBox="0 0 1024 1024"
   xmlns="http://www.w3.org/2000/svg"
   xmlns:svg="http://www.w3.org/2000/svg">
  <defs
     id="defs1" />
  <g
     id="g1">
    <path
       style="fill:#000000"
       d="m 475.61412,906.64437 c -24.19347,-29.46355 -37.35522,-43.87611 -98.78858,-108.17688 -31.37719,-32.84171 -34.53892,-36.20248 -47.50921,-50.5 -34.8455,-38.41119 -66.32442,-77.84318 -84.62079,-106 -41.28385,-63.53292 -60.04399,-127.15456 -55.97528,-189.83009 2.6182,-40.33153 11.97503,-74.54192 29.71063,-108.62777 20.72329,-39.82786 50.50671,-73.15571 90.87716,-101.69216 11.37975,-8.04394 32.52821,-21.44206 37.8555,-23.98246 3.03738,-1.44843 3.65336,-2.31482 4.11336,-5.78553 1.24876,-9.422 5.14935,-56.58729 8.60763,-104.08199 0.60071,-8.249999 1.28958,-15.626209 1.53081,-16.391589 0.27688,-0.8785 3.26101,1.70244 8.09352,7 19.08985,20.926939 42.21926,42.038729 74.29918,67.817909 l 16.5,13.25928 4.52093,-0.59686 c 10.17868,-1.34379 24.9082,-2.5387 31.59321,-2.56294 l 7.11414,-0.0258 1.79483,-4.75 c 6.64104,-17.57548 36.82389,-80.268989 50.88193,-105.688076 l 4.39016,-7.938077 9.92791,19.938074 c 17.70414,35.554959 26.09359,50.198059 54.10631,94.438079 9.92539,15.675 19.31165,30.51144 20.85837,32.96986 1.84944,2.9396 5.83487,6.59386 11.6413,10.67401 24.91668,17.50878 49.9314,40.48245 65.5421,60.19416 35.3241,44.60403 59.0951,99.44308 66.8243,154.16197 2.68,18.97302 2.3917,57.59528 -0.574,76.90655 -7.8246,50.94903 -25.2739,92.92326 -59.9017,144.09345 -14.5193,21.45533 -24.8002,34.96695 -45.6431,59.98571 -31.29502,37.56498 -48.57407,56.50205 -103.57559,113.51429 -51.40997,53.28938 -55.18902,57.40843 -81.0011,88.28878 -4.675,5.59295 -8.725,10.1456 -9,10.11699 -0.275,-0.0286 -6.66227,-7.55661 -14.19393,-16.72889 z m 72.88351,-151.17688 c 4.55842,-6.70926 12.6201,-23.21752 16.70074,-34.19885 8.23729,-22.16719 11.60968,-42.89371 11.60968,-71.35237 0,-14.62585 0.27387,-18.44878 1.32166,-18.44878 3.80303,0 14.61912,25.27587 18.67241,43.63511 2.28091,10.3313 4.43624,33.53473 3.76444,40.52634 -0.25571,2.6612 -0.19348,4.83461 0.13828,4.8298 1.09409,-0.0159 7.94645,-11.37031 11.48845,-19.03649 4.12656,-8.9314 9.69599,-26.89878 12.22998,-39.45476 2.55511,-12.66066 2.60704,-47.2124 0.0897,-59.70981 -3.3473,-16.61802 -9.17728,-31.43854 -17.24477,-43.83831 -4.9209,-7.56345 -20.98804,-24.62485 -25.34562,-26.91405 -2.23629,-1.17481 -2.34866,-1.10575 -1.79735,1.10451 3.09435,12.40552 3.18522,36.71648 0.19614,52.47365 -1.76669,9.31325 -6.14561,22.77247 -9.65434,29.67395 l -2.43521,4.78993 -1.85428,-5.28993 c -3.25611,-9.2891 -13.26612,-28.00416 -22.52165,-42.10726 -4.93875,-7.52547 -9.16185,-13.68268 -9.38461,-13.68268 -0.22276,0 0.0235,2.1375 0.54713,4.75 1.56882,7.82638 1.24501,27.8657 -0.60656,37.5373 -2.01264,10.51299 -6.15475,22.98926 -10.3626,31.2127 -3.37429,6.5944 -3.4368,6.54608 -5.17537,-4 -2.35448,-14.28217 -9.64899,-34.12728 -17.41449,-47.37709 -2.00824,-3.42653 -3.63051,-6.54345 -3.60506,-6.92649 0.0254,-0.38303 2.90506,2.41575 6.39913,6.21951 l 6.35285,6.91594 0.73527,-7.84643 c 1.11409,-11.88893 -0.0663,-26.70126 -2.98713,-37.48544 -3.39589,-12.53807 -12.78397,-31.25375 -21.44536,-42.75253 -7.83469,-10.40127 -7.82455,-10.41248 4.89896,-5.41716 13.09235,5.14013 23.25991,12.50088 37.0297,26.80747 7.8765,8.18356 18.07708,22.05087 21.0467,28.61222 0.68455,1.5125 1.57592,2.75 1.98083,2.75 1.46318,0 3.44044,-17.77561 3.33702,-30 -0.15346,-18.13937 -4.11506,-35.99952 -11.37642,-51.28846 -1.25083,-2.63365 -2.03351,-5.02919 -1.73929,-5.32341 0.86608,-0.86609 10.85141,4.23064 16.31364,8.32684 14.42497,10.81747 24.8698,22.02465 36.3797,39.03503 3.44241,5.0875 6.35752,9.25 6.47801,9.25 0.1205,0 -0.16513,-2.8125 -0.63473,-6.25 -1.49164,-10.9187 -4.80675,-21.18946 -10.8899,-33.73861 l -5.91114,-12.19434 5.74294,3.234 c 8.47074,4.77008 16.12623,10.94507 23.66773,19.09058 19.84503,21.43447 32.32483,51.10226 34.43385,81.85837 l 0.72001,10.5 1.77627,-4 c 11.31816,-25.48744 12.79734,-66.43637 3.53155,-97.76616 -5.0422,-17.04889 -15.79627,-37.35414 -26.86966,-50.73384 -2.04837,-2.475 -4.25596,-5.5125 -4.90574,-6.75 -1.10067,-2.09617 -0.97608,-2.25 1.82236,-2.25 2.43812,0 2.88317,-0.32956 2.36323,-1.75 -2.83867,-7.75511 -21.6793,-28.37354 -34.68381,-37.95659 -9.388,-6.91803 -20.77074,-13.50855 -28.78341,-16.66536 -3.6688,-1.44543 -6.86667,-2.62805 -7.10638,-2.62805 -0.23971,0 -0.70395,4.6125 -1.03165,10.25 -0.3277,5.6375 -1.3244,12.95 -2.21488,16.25 -1.93535,7.17215 -10.08949,24.654 -14.31323,30.6865 -4.20073,5.99962 -10.12106,12.53789 -10.14412,11.20293 -0.0105,-0.61082 0.70928,-7.36082 1.59961,-15 4.72328,-40.52637 -4.13657,-70.90483 -26.79946,-91.88943 -7.84368,-7.26281 -15.31148,-11.82827 -24.67295,-15.08387 -8.40817,-2.92407 -21.35003,-4.81276 -28.76499,-4.19785 l -5.38139,0.44627 v -7.37444 c 0,-7.48936 2.33185,-21.17315 4.20434,-24.67192 0.86233,-1.61127 0.74939,-1.81441 -0.6996,-1.25838 -4.83987,1.85723 -16.97368,11.19274 -25.52732,19.64019 -13.43446,13.26769 -27.25176,35.12168 -29.58644,46.79508 -0.86025,4.30129 -1.80487,4.03636 -3.7263,-1.04508 -4.3721,-11.56256 -5.13794,-17.57732 -5.15151,-40.45918 l -0.0132,-22.20918 -3.85902,3.70918 c -6.59001,6.33413 -13.6225,16.30782 -18.4802,26.20918 l -4.66075,9.5 v 18.01504 18.01505 l -3.33654,5.20736 c -1.83509,2.86405 -5.9122,7.59197 -9.06023,10.50649 -5.28848,4.8962 -66.43888,46.48258 -96.60323,65.69669 -14.59949,9.29959 -19.11111,13.09728 -21.11924,17.77725 -3.14724,7.33469 -1.27419,13.43624 8.33608,27.15523 21.77859,31.08969 36.61343,51.41368 40.99116,56.15862 10.74876,11.65038 25.52046,16.23268 52.292,16.22139 18.71722,-0.008 27.64636,-1.74891 50.84169,-9.91322 20.62427,-7.25935 33.92822,-10.29633 48.15831,-10.9934 26.32284,-1.28946 40.20572,7.35394 46.48052,28.93849 2.53073,8.7054 1.89927,9.23756 -4.86966,4.10389 -7.52768,-5.70911 -20.28549,-11.87719 -28.61086,-13.83262 -3.575,-0.83968 -10.11796,-1.53335 -14.5399,-1.54148 -18.0088,-0.0331 -31.77926,6.96646 -44.6194,22.68017 -3.28304,4.01778 -5.73782,7.30505 -5.45507,7.30505 0.28276,0 2.54514,-1.37073 5.02752,-3.04607 5.56631,-3.75665 15.58779,-8.35669 21.58685,-9.90875 2.475,-0.64032 5.4,-1.4107 6.5,-1.71195 1.33909,-0.36672 0.3195,1.22262 -3.08537,4.80952 -7.26116,7.64935 -11.89086,14.46271 -16.47593,24.24699 -12.36497,26.38615 -12.44002,61.77544 -0.18356,86.55224 l 3.73877,7.55802 1.16292,-14.75223 c 2.73438,-34.68667 12.03608,-62.35315 26.2235,-77.99777 1.37162,-1.5125 2.80058,-2.75 3.17548,-2.75 0.37489,0 0.10196,2.49363 -0.60651,5.54139 -4.1427,17.82131 -4.41611,52.90145 -0.55889,71.71018 5.09441,24.84162 15.67869,47.50208 28.84154,61.74843 l 5.0817,5.5 -2.87115,-11.18379 c -5.95005,-23.17681 -5.50244,-49.77213 1.20028,-71.31621 2.08839,-6.71257 8.92459,-21.9986 9.83963,-22.00182 0.28467,-0.001 0.37423,5.7365 0.199,12.75 -0.65954,26.39867 5.12908,52.89696 17.78501,81.41359 5.01535,11.30071 17.65362,33.83823 18.97532,33.83823 1.23267,0 5.54526,-10.42407 9.51544,-23 4.97843,-15.76966 7.53587,-31.50912 8.2487,-50.76562 0.57236,-15.46192 0.68933,-16.1867 2.36722,-14.66822 0.97081,0.87857 3.32097,4.5981 5.22257,8.26562 9.60674,18.52802 14.34399,44.59129 13.48885,74.21261 l -0.48653,16.85295 3.16709,-4.19867 c 1.74191,-2.30927 4.54293,-6.22367 6.2245,-8.69867 z M 310.30805,528.75294 c -14.87537,-2.05718 -31.93145,-10.14308 -41.89103,-19.85959 -3.67146,-3.58185 -30.79,-39.39619 -34.75972,-45.90572 -3.34664,-5.48781 -1.61158,-13.96449 3.4111,-16.66505 1.23181,-0.66231 6.73965,-1.55297 12.23965,-1.97925 5.5,-0.42628 13.8502,-1.5515 18.556,-2.50049 8.29621,-1.67304 8.67491,-1.66698 12.47216,0.19961 8.09584,3.97961 10.27178,14.18188 5.22482,24.49749 -1.47157,3.00778 -5.86682,8.93202 -9.76721,13.16496 -8.03342,8.71834 -8.03263,8.70321 -0.80085,15.35971 9.75609,8.98003 19.75599,14.07042 33.02499,16.81121 16.45488,3.39885 31.88965,1.54561 53.37421,-6.40861 18.4158,-6.81806 20.11275,-7.27917 24.06208,-6.53827 3.92957,0.73719 6.83605,4.44374 5.87038,7.48632 -0.79585,2.50751 -6.49503,5.91747 -19.33316,11.56751 -13.21695,5.81677 -20.99261,8.2741 -31.68342,10.01289 -8.35468,1.35883 -22.98058,1.72803 -30,0.75728 z m 86.5,-147.5523 c 0,-3.50619 3.43369,-13.766 6.66527,-19.9157 4.49769,-8.55912 12.02465,-15.63261 19.96214,-18.7595 8.8412,-3.4829 23.99864,-3.95904 35.87259,-1.12685 8.71563,2.07886 20.42987,7.13984 25.44517,10.99324 2.43676,1.87224 2.41553,1.87684 -6.18363,1.34036 -10.91718,-0.6811 -16.7803,1.09304 -25.88301,7.83201 -8.83007,6.53712 -13.48568,8.45623 -25.37853,10.46135 -9.99261,1.68475 -23.73092,6.05277 -28.15557,8.95191 -1.82218,1.19394 -2.34443,1.24366 -2.34443,0.22318 z m 300.48389,86.90869 c -2.2804,-15.62553 -7.5274,-32.11241 -15.00302,-47.14184 -15.92,-32.00648 -41.06551,-55.09113 -73.38685,-67.37228 l -5.06608,-1.92496 4.5003,6.14862 c 13.79454,18.84704 20.47176,37.09671 20.47176,55.95182 v 8.38752 l 8.25,5.06386 c 15.00447,9.20974 28.77091,22.79179 39.29579,38.76943 5.80065,8.80588 16.1302,29.17845 19.6892,38.8321 l 2.265,6.14389 0.2842,-16 c 0.1914,-10.77232 -0.2335,-19.54769 -1.3003,-26.85816 z m 8.8802,-122.7115 c -18.6702,-23.76415 -44.28899,-38.33753 -86.86409,-49.41301 -12.53703,-3.26138 -18.96505,-6.21801 -23.74842,-10.9233 -7.0489,-6.93385 -7.26494,-8.09558 -3.78755,-20.36739 10.0818,-35.57894 7.73369,-65.28204 -8.75321,-110.72664 -6.56162,-18.08648 -21.50911,-50.5 -23.28808,-50.5 -1.14533,0 -11.02769,18.67202 -17.59374,33.24212 -20.41906,45.31004 -23.46849,82.6858 -9.07735,111.25788 3.0372,6.03004 10.08573,16.97228 11.4935,17.84268 0.41517,0.25669 0.75485,-12.2029 0.75485,-27.68798 0,-23.04096 0.33839,-30.06182 1.86306,-38.6547 2.1802,-12.28739 7.72218,-31.27549 11.02511,-37.77457 l 2.31461,-4.5544 2.71076,5.91449 c 3.76894,8.22328 8.06797,23.14054 9.91798,34.41448 3.85627,23.5001 3.01708,41.87311 -2.96149,64.83808 -4.4191,16.97472 -4.32158,23.75547 0.482,33.51292 6.0653,12.32037 16.01612,20.90766 34.28614,29.588 12.97189,6.16313 19.368,7.78635 33.86183,8.59352 22.6123,1.2593 41.66854,5.36655 59.99999,12.932 5.775,2.38336 10.8674,4.37885 11.3164,4.43443 0.449,0.0556 -1.3296,-2.6303 -3.9523,-5.96861 z M 327.40087,322.46749 c 5.07188,-13.18038 16.1079,-35.80497 22.5317,-46.19153 7.84808,-12.68946 16.12209,-22.68483 30.69348,-37.07912 10.20258,-10.07857 13.63968,-14.18921 16.30489,-19.5 3.32644,-6.62839 3.37655,-6.92439 3.34009,-19.72935 -0.0358,-12.56612 -0.17471,-13.40352 -4.16227,-25.09036 -4.3357,-12.70718 -13.64892,-32.25985 -20.63365,-43.31938 l -4.13907,-6.55376 -0.74454,3.98175 c -0.4095,2.18996 -1.04893,25.66869 -1.42096,52.17496 l -0.67642,48.1932 -4.59304,3.25706 c -21.31209,15.11305 -37.56422,40.23054 -42.17181,65.17604 -1.33918,7.25035 -1.60559,27.22153 -0.44929,33.68049 0.91296,5.09966 0.41158,5.83687 6.12089,-9 z"
       id="path1" />
  </g>
</svg>
