<?xml version="1.0" encoding="UTF-8" standalone="no"?>
<!-- Created with Inkscape (http://www.inkscape.org/) -->

<svg
   version="1.1"
   id="svg1"
   width="1024"
   height="1024"
   viewBox="0 0 1024 1024"
   xmlns="http://www.w3.org/2000/svg"
   xmlns:svg="http://www.w3.org/2000/svg">
  <defs
     id="defs1" />
  <g
     id="g1">
    <path
       style="fill:#000000"
       d="M 508.55463,863.2448 C 466.24957,828.08774 399.28271,761.23246 353.5771,708.52549 298.75221,645.30231 264.73729,591.02051 247.61991,539.43653 c -3.73425,-11.25331 -8.79236,-32.05757 -10.69765,-44 -2.62264,-16.43871 -2.61783,-65.35927 0.008,-81.86652 2.14266,-13.4696 7.35782,-34.2994 11.58882,-46.2867 12.65538,-35.85541 34.94859,-72.14264 60.67465,-98.76173 l 7.33059,-7.58505 -0.0527,10.5 c -0.029,5.775 -0.6039,32.775 -1.27763,60 -0.67372,27.225 -1.12816,49.64568 -1.00986,49.82374 0.1183,0.17805 1.71941,-0.45584 3.55802,-1.40865 1.83861,-0.95281 6.71793,-2.96384 10.84293,-4.46896 l 7.5,-2.73658 0.67174,-50.35477 c 0.76835,-57.59685 2.23104,-106.96806 4.3656,-147.35478 1.31965,-24.96841 3.32501,-52.63709 3.85665,-53.21155 0.37279,-0.40282 49.08294,55.66354 76.64472,88.21959 15.58822,18.41285 37.63084,45.25293 47.00866,57.23983 3.54895,4.53634 7.12763,8.2452 7.95263,8.24194 0.825,-0.003 6.675,-0.72326 13,-1.59997 15.96891,-2.21346 41.26313,-2.16994 57.3759,0.0987 11.29719,1.59063 12.97729,1.63172 13.70286,0.33519 4.50754,-8.05452 94.69963,-114.73116 123.56853,-146.15332 5.7432,-6.2511 6.3162,-6.63226 6.7648,-4.5 0.5348,2.54197 3.0846,44.81529 4.5739,75.82958 0.515,10.725 1.4229,45.15 2.0175,76.5 0.5947,31.35 1.3343,66 1.6436,77 l 0.5624,20 9.1453,3.81962 c 5.0299,2.10079 9.8202,4.03675 10.6452,4.30213 1.3303,0.4279 1.3694,-5.32264 0.3455,-50.81962 -0.635,-28.21617 -1.192,-55.35213 -1.2378,-60.30213 l -0.083,-9 6.2796,6.5 c 24.8008,25.67114 45.4881,57.83795 58.3465,90.72344 12.3744,31.64736 17.395,59.16102 17.44,95.57349 0.037,30.13634 -3.1752,52.2002 -11.7501,80.70307 -23.0287,76.54646 -93.2023,170.38632 -210.8404,281.94705 -13.20005,12.51805 -28.0543,26.31349 -33.00949,30.65653 -9.98938,8.7553 -25.42171,21.68021 -27.02107,22.63071 -0.56678,0.33684 -4.84178,-2.55487 -9.5,-6.42602 z m 29.14455,-165.17319 c 15.43417,-6.39136 25.04428,-18.1971 34.31859,-42.1594 6.7822,-17.52316 11.8193,-27.24857 19.227,-37.12217 6.6088,-8.80879 20.6596,-22.25601 29.9101,-28.62524 3.8116,-2.62446 13.4735,-9.24394 21.4709,-14.70996 15.7982,-10.79776 27.1594,-20.76907 38.7603,-34.01831 20.2321,-23.10703 36.7265,-56.28006 44.5014,-89.5 3.9506,-16.88004 4.1077,-15.69562 -2.3023,-17.35782 -3.9296,-1.01899 -11.9243,-1.44315 -28,-1.48554 -25.1343,-0.0663 -32.0938,0.97062 -52.8946,7.88073 -42.7932,14.21616 -71.3174,39.75624 -86.19189,77.17493 -8.12935,20.45042 -14.63521,55.38314 -16.49724,88.58059 l -0.66146,11.79289 -4.62742,-0.79289 c -6.02974,-1.03317 -28.29026,-1.02127 -34.37742,0.0184 l -4.75,0.81128 -0.0103,-6.31128 c -0.006,-3.47122 -0.46385,-11.71129 -1.01815,-18.31129 -6.38163,-75.98591 -29.65728,-118.33589 -78.47155,-142.77878 -32.25716,-16.1522 -68.30823,-22.35211 -99.86259,-17.17392 -9.85958,1.61799 -10.57153,1.88781 -10.14915,3.84638 10.14977,47.06466 23.59143,75.78252 49.66402,106.10632 11.15808,12.97743 23.96104,23.65092 44.34772,36.97154 23.72949,15.5048 37.96092,28.47994 47.7931,43.57414 5.64883,8.67199 11.9653,21.96386 15.18511,31.95432 3.50007,10.86004 10.62542,23.11928 17.49241,30.09587 11.28233,11.46241 20.54433,14.96033 38.52938,14.55114 10.43009,-0.2373 12.86529,-0.63134 18.61404,-3.01193 z m -29.61404,-17.97402 c -8.96613,-2.96984 -15.10446,-8.05816 -17.94932,-14.87894 -3.97407,-9.52814 0.81479,-19.85447 11.82958,-25.50844 6.73378,-3.4565 19.8697,-4.34783 27.36862,-1.85709 9.70026,3.22191 17.17938,12.28291 17.22916,20.87325 0.0438,7.55835 -6.56674,15.86621 -15.92723,20.01669 -5.64795,2.50433 -17.01768,3.18726 -22.55081,1.35453 z m -64.5,-171.65929 c -17.40928,-2.32968 -31.3438,-10.7472 -40.03709,-24.18549 -3.95193,-6.10898 -8.56271,-16.54981 -7.69276,-17.41976 1.03009,-1.0301 19.32038,5.75231 26.70422,9.90245 8.90703,5.00627 20.15011,15.68869 25.89749,24.60607 2.27048,3.52277 4.12814,6.78527 4.12814,7.25 0,0.93582 -0.98699,0.91901 -9,-0.15327 z m 139.00003,-0.0969 c 0,-2.00742 7.3559,-12.42691 12.8565,-18.21092 5.8084,-6.10779 13.4042,-11.76522 20.9433,-15.59894 4.6766,-2.37807 22.2702,-8.35827 22.8587,-7.76982 0.1995,0.19957 -0.2686,2.15261 -1.0404,4.34009 -6.4211,18.19928 -20.7619,31.26063 -39.2307,35.73063 -8.1893,1.98205 -16.3874,2.73693 -16.3874,1.50894 z M 474.57941,240.93653 c -5.32524,-6.6 -14.9633,-18.075 -21.41792,-25.5 l -11.73567,-13.5 7.32966,-2.26719 c 9.39517,-2.90608 28.53258,-6.76624 41.32966,-8.33649 22.19924,-2.72393 59.49549,-1.02804 80.21603,3.6475 8.9791,2.02609 21.5959,5.61598 22.5276,6.4098 0.4089,0.34846 -4.7937,6.91395 -11.5615,14.58997 -6.7677,7.67603 -16.47546,19.10777 -21.57267,25.40387 l -9.26766,11.44745 -33.08264,0.0525 -33.08264,0.0525 z"
       id="path1" />
  </g>
</svg>
